  0
SECTION
  2
HEADER
  9
$ACADVER
  1
AC1009
  9
$DWGCODEPAGE
  3
ansi_1252
  9
$INSBASE
 10
0.0
 20
0.0
 30
0.0
  9
$EXTMIN
 10
32.08129690111103
 20
512.3148341519745
 30
0.0
  9
$EXTMAX
 10
569.8607866541129
 20
1309.322625921737
 30
0.0
  9
$LIMMIN
 10
0.0
 20
0.0
  9
$LIMMAX
 10
12.0
 20
9.0
  9
$ORTHOMODE
 70
     0
  9
$REGENMODE
 70
     1
  9
$FILLMODE
 70
     1
  9
$QTEXTMODE
 70
     0
  9
$MIRRTEXT
 70
     1
  9
$DRAGMODE
 70
     2
  9
$LTSCALE
 40
1.0
  9
$OSMODE
 70
    37
  9
$ATTMODE
 70
     1
  9
$TEXTSIZE
 40
0.2
  9
$TRACEWID
 40
0.05
  9
$TEXTSTYLE
  7
STANDARD
  9
$CLAYER
  8
0
  9
$CELTYPE
  6
BYLAYER
  9
$CECOLOR
 62
   256
  9
$DIMSCALE
 40
1.0
  9
$DIMASZ
 40
0.18
  9
$DIMEXO
 40
0.0625
  9
$DIMDLI
 40
0.38
  9
$DIMRND
 40
0.0
  9
$DIMDLE
 40
0.0
  9
$DIMEXE
 40
0.18
  9
$DIMTP
 40
0.0
  9
$DIMTM
 40
0.0
  9
$DIMTXT
 40
0.18
  9
$DIMCEN
 40
0.09
  9
$DIMTSZ
 40
0.0
  9
$DIMTOL
 70
     0
  9
$DIMLIM
 70
     0
  9
$DIMTIH
 70
     1
  9
$DIMTOH
 70
     1
  9
$DIMSE1
 70
     0
  9
$DIMSE2
 70
     0
  9
$DIMTAD
 70
     0
  9
$DIMZIN
 70
     0
  9
$DIMBLK
  1

  9
$DIMASO
 70
     1
  9
$DIMSHO
 70
     1
  9
$DIMPOST
  1

  9
$DIMAPOST
  1

  9
$DIMALT
 70
     0
  9
$DIMALTD
 70
     2
  9
$DIMALTF
 40
25.4
  9
$DIMLFAC
 40
1.0
  9
$DIMTOFL
 70
     0
  9
$DIMTVP
 40
0.0
  9
$DIMTIX
 70
     0
  9
$DIMSOXD
 70
     0
  9
$DIMSAH
 70
     0
  9
$DIMBLK1
  1

  9
$DIMBLK2
  1

  9
$DIMSTYLE
  2
STANDARD
  9
$DIMCLRD
 70
     0
  9
$DIMCLRE
 70
     0
  9
$DIMCLRT
 70
     0
  9
$DIMTFAC
 40
1.0
  9
$DIMGAP
 40
0.09
  9
$LUNITS
 70
     2
  9
$LUPREC
 70
     4
  9
$SKETCHINC
 40
0.1
  9
$FILLETRAD
 40
0.5
  9
$AUNITS
 70
     0
  9
$AUPREC
 70
     0
  9
$MENU
  1
.
  9
$ELEVATION
 40
0.0
  9
$PELEVATION
 40
0.0
  9
$THICKNESS
 40
0.0
  9
$LIMCHECK
 70
     0
  9
$CHAMFERA
 40
0.0
  9
$CHAMFERB
 40
0.0
  9
$SKPOLY
 70
     0
  9
$TDCREATE
 40
2454910.5
  9
$TDUPDATE
 40
2460804.378189225
  9
$TDINDWG
 40
0.0000000116
  9
$TDUSRTIMER
 40
0.0000000116
  9
$USRTIMER
 70
     1
  9
$ANGBASE
 50
0.0
  9
$ANGDIR
 70
     0
  9
$PDMODE
 70
     0
  9
$PDSIZE
 40
0.0
  9
$PLINEWID
 40
0.0
  9
$COORDS
 70
     1
  9
$SPLFRAME
 70
     0
  9
$SPLINETYPE
 70
     6
  9
$SPLINESEGS
 70
     8
  9
$ATTDIA
 70
     0
  9
$ATTREQ
 70
     1
  9
$HANDLING
 70
     1
  9
$HANDSEED
  5
113
  9
$SURFTAB1
 70
     6
  9
$SURFTAB2
 70
     6
  9
$SURFTYPE
 70
     6
  9
$SURFU
 70
     6
  9
$SURFV
 70
     6
  9
$UCSNAME
  2

  9
$UCSORG
 10
0.0
 20
0.0
 30
0.0
  9
$UCSXDIR
 10
1.0
 20
0.0
 30
0.0
  9
$UCSYDIR
 10
0.0
 20
1.0
 30
0.0
  9
$PUCSNAME
  2

  9
$PUCSORG
 10
0.0
 20
0.0
 30
0.0
  9
$PUCSXDIR
 10
1.0
 20
0.0
 30
0.0
  9
$PUCSYDIR
 10
0.0
 20
1.0
 30
0.0
  9
$USERI1
 70
     0
  9
$USERI2
 70
     0
  9
$USERI3
 70
     0
  9
$USERI4
 70
     0
  9
$USERI5
 70
     0
  9
$USERR1
 40
0.0
  9
$USERR2
 40
0.0
  9
$USERR3
 40
0.0
  9
$USERR4
 40
0.0
  9
$USERR5
 40
0.0
  9
$WORLDVIEW
 70
     1
  9
$SHADEDGE
 70
     3
  9
$SHADEDIF
 70
    70
  9
$TILEMODE
 70
     1
  9
$MAXACTVP
 70
    64
  9
$PLIMCHECK
 70
     0
  9
$PEXTMIN
 10
1.000000000000000E+20
 20
1.000000000000000E+20
 30
1.000000000000000E+20
  9
$PEXTMAX
 10
-1.000000000000000E+20
 20
-1.000000000000000E+20
 30
-1.000000000000000E+20
  9
$PLIMMIN
 10
0.0
 20
0.0
  9
$PLIMMAX
 10
12.0
 20
9.0
  9
$UNITMODE
 70
     0
  9
$VISRETAIN
 70
     1
  9
$PLINEGEN
 70
     0
  9
$PSLTSCALE
 70
     1
  0
ENDSEC
  0
SECTION
  2
TABLES
  0
TABLE
  2
VPORT
 70
     1
  0
VPORT
  2
*ACTIVE
 70
     0
 10
0.0
 20
0.0
 11
1.0
 21
1.0
 12
10.42990654205607
 22
4.5
 13
0.0
 23
0.0
 14
0.5
 24
0.5
 15
0.5
 25
0.5
 16
0.0
 26
0.0
 36
1.0
 17
0.0
 27
0.0
 37
0.0
 40
9.0
 41
1.972972972850329
 42
50.0
 43
0.0
 44
0.0
 50
0.0
 51
0.0
 71
     0
 72
   100
 73
     1
 74
     3
 75
     0
 76
     0
 77
     0
 78
     0
  0
ENDTAB
  0
TABLE
  2
LTYPE
 70
     2
  0
LTYPE
  2
CONTINUOUS
 70
     0
  3
Solid line
 72
    65
 73
     0
 40
0.0
  0
LTYPE
  2
CONTINUOUS2
 70
     0
  3
Solid Line
 72
    65
 73
     0
 40
0.0
  0
ENDTAB
  0
TABLE
  2
LAYER
 70
    17
  0
LAYER
  2
0
 70
     0
 62
     7
  6
CONTINUOUS
  0
LAYER
  2
LEFTRIGHT_TL
 70
     0
 62
    18
  6
CONTINUOUS
  0
LAYER
  2
LEFTRIGHT_BL
 70
     0
 62
    18
  6
CONTINUOUS
  0
LAYER
  2
LEFTRIGHT_TR
 70
     0
 62
    18
  6
CONTINUOUS
  0
LAYER
  2
LEFTRIGHT_BR
 70
     0
 62
    18
  6
CONTINUOUS
  0
LAYER
  2
LEFTRIHT_SLOTR
 70
     0
 62
    18
  6
CONTINUOUS
  0
LAYER
  2
LEFTRIGHT_SLOTL
 70
     0
 62
    18
  6
CONTINUOUS
  0
LAYER
  2
FRONTBACK_BL
 70
     0
 62
    18
  6
CONTINUOUS
  0
LAYER
  2
FRONTBACK_TL
 70
     0
 62
    18
  6
CONTINUOUS
  0
LAYER
  2
FRONTBACK_TR
 70
     0
 62
    18
  6
CONTINUOUS
  0
LAYER
  2
FRONTBACK_BR
 70
     0
 62
    18
  6
CONTINUOUS
  0
LAYER
  2
FRONTBACK_SLOTL
 70
     0
 62
    18
  6
CONTINUOUS
  0
LAYER
  2
FRONTBACK_SLOTR
 70
     0
 62
    18
  6
CONTINUOUS
  0
LAYER
  2
BOTTOM_BR
 70
     0
 62
    18
  6
CONTINUOUS
  0
LAYER
  2
BOTTOM_TR
 70
     0
 62
    18
  6
CONTINUOUS
  0
LAYER
  2
BOTTOM_TL
 70
     0
 62
    18
  6
CONTINUOUS
  0
LAYER
  2
BOTTOM_BL
 70
     0
 62
    18
  6
CONTINUOUS
  0
ENDTAB
  0
TABLE
  2
STYLE
 70
     1
  0
STYLE
  2
STANDARD
 70
     0
 40
0.0
 41
1.0
 50
0.0
 71
     0
 42
0.2
  3
txt
  4

  0
ENDTAB
  0
TABLE
  2
VIEW
 70
     0
  0
ENDTAB
  0
TABLE
  2
UCS
 70
     0
  0
ENDTAB
  0
TABLE
  2
APPID
 70
     1
  0
APPID
  2
ACAD
 70
     0
  0
ENDTAB
  0
TABLE
  2
DIMSTYLE
 70
     1
  0
DIMSTYLE
  2
STANDARD
 70
     0
  3

  4

  5

  6

  7

 40
1.0
 41
0.18
 42
0.0625
 43
0.38
 44
0.18
 45
0.0
 46
0.0
 47
0.0
 48
0.0
140
0.18
141
0.09
142
0.0
143
25.4
144
1.0
145
0.0
146
1.0
147
0.09
 71
     0
 72
     0
 73
     1
 74
     1
 75
     0
 76
     0
 77
     0
 78
     0
170
     0
171
     2
172
     0
173
     0
174
     0
175
     0
176
     0
177
     0
178
     0
  0
ENDTAB
  0
ENDSEC
  0
SECTION
  2
BLOCKS
  0
BLOCK
  8
0
  2
$MODEL_SPACE
 70
     0
 10
0.0
 20
0.0
 30
0.0
  3
$MODEL_SPACE
  1

  0
ENDBLK
  5
21
  8
0
  0
BLOCK
 67
     1
  8
0
  2
$PAPER_SPACE
 70
     0
 10
0.0
 20
0.0
 30
0.0
  3
$PAPER_SPACE
  1

  0
ENDBLK
  5
1D
 67
     1
  8
0
  0
ENDSEC
  0
SECTION
  2
ENTITIES
  0
POLYLINE
  5
70
  8
LEFTRIGHT_TL
 66
     1
 10
0.0
 20
0.0
 30
0.0
  0
VERTEX
  5
96
  8
LEFTRIGHT_TL
 10
41.48129690111114
 20
567.6148341519541
 30
0.0
  0
VERTEX
  5
97
  8
LEFTRIGHT_TL
 10
41.48129690111114
 20
582.9148341519302
 30
0.0
  0
VERTEX
  5
98
  8
LEFTRIGHT_TL
 10
32.08129690111114
 20
582.9148341519302
 30
0.0
  0
VERTEX
  5
99
  8
LEFTRIGHT_TL
 10
32.08129690111114
 20
602.9148341519302
 30
0.0
  0
VERTEX
  5
9A
  8
LEFTRIGHT_TL
 10
32.08129690111103
 20
622.91483415193
 30
0.0
  0
VERTEX
  5
9B
  8
LEFTRIGHT_TL
 10
82.08129690111275
 20
622.9148341519303
 30
0.0
  0
VERTEX
  5
9C
  8
LEFTRIGHT_TL
 10
93.9988328270544
 20
632.9148341519303
 30
0.0
  0
VERTEX
  5
9D
  8
LEFTRIGHT_TL
 10
132.0812969011131
 20
632.9148341519301
 30
0.0
  0
SEQEND
  5
103
  8
LEFTRIGHT_TL
  0
POLYLINE
  5
72
  8
LEFTRIGHT_BL
 66
     1
 10
0.0
 20
0.0
 30
0.0
  0
VERTEX
  5
9E
  8
LEFTRIGHT_BL
 10
41.48129690111114
 20
567.6148341519541
 30
0.0
  0
VERTEX
  5
9F
  8
LEFTRIGHT_BL
 10
41.48129690111114
 20
552.3148341519783
 30
0.0
  0
VERTEX
  5
A0
  8
LEFTRIGHT_BL
 10
32.0812969011111
 20
552.3148341519783
 30
0.0
  0
VERTEX
  5
A1
  8
LEFTRIGHT_BL
 10
32.08129690111106
 20
532.3148341519783
 30
0.0
  0
VERTEX
  5
A2
  8
LEFTRIGHT_BL
 10
32.08129690111106
 20
522.3148341519783
 30
0.0
  0
VERTEX
  5
A3
  8
LEFTRIGHT_BL
 10
32.08129690111106
 20
512.3148341519783
 30
0.0
  0
VERTEX
  5
A4
  8
LEFTRIGHT_BL
 10
82.08129690111122
 20
512.3148341519745
 30
0.0
  0
VERTEX
  5
A5
  8
LEFTRIGHT_BL
 10
93.9988328270585
 20
522.3148341519819
 30
0.0
  0
VERTEX
  5
A6
  8
LEFTRIGHT_BL
 10
132.0810000000012
 20
522.3148341519819
 30
0.0
  0
SEQEND
  5
104
  8
LEFTRIGHT_BL
  0
POLYLINE
  5
74
  8
LEFTRIGHT_TR
 66
     1
 10
0.0
 20
0.0
 30
0.0
  0
VERTEX
  5
A7
  8
LEFTRIGHT_TR
 10
222.6812969011123
 20
567.6148341519536
 30
0.0
  0
VERTEX
  5
A8
  8
LEFTRIGHT_TR
 10
222.6812969011123
 20
582.9148341519303
 30
0.0
  0
VERTEX
  5
A9
  8
LEFTRIGHT_TR
 10
232.0812969011123
 20
582.9148341519303
 30
0.0
  0
VERTEX
  5
AA
  8
LEFTRIGHT_TR
 10
232.0812969011123
 20
602.9148341519303
 30
0.0
  0
VERTEX
  5
AB
  8
LEFTRIGHT_TR
 10
232.0812969011123
 20
622.9148341519302
 30
0.0
  0
VERTEX
  5
AC
  8
LEFTRIGHT_TR
 10
222.6812969011122
 20
622.9148341519302
 30
0.0
  0
VERTEX
  5
AD
  8
LEFTRIGHT_TR
 10
182.0812969011166
 20
622.9148341519286
 30
0.0
  0
VERTEX
  5
AE
  8
LEFTRIGHT_TR
 10
170.1637609751731
 20
632.9148341519286
 30
0.0
  0
VERTEX
  5
AF
  8
LEFTRIGHT_TR
 10
132.0812969011151
 20
632.9148341519289
 30
0.0
  0
SEQEND
  5
105
  8
LEFTRIGHT_TR
  0
POLYLINE
  5
76
  8
LEFTRIGHT_BR
 66
     1
 10
0.0
 20
0.0
 30
0.0
  0
VERTEX
  5
B0
  8
LEFTRIGHT_BR
 10
222.6812969011123
 20
567.6148341519537
 30
0.0
  0
VERTEX
  5
B1
  8
LEFTRIGHT_BR
 10
222.6812969011123
 20
552.3148341519767
 30
0.0
  0
VERTEX
  5
B2
  8
LEFTRIGHT_BR
 10
232.0812969011123
 20
552.3148341519784
 30
0.0
  0
VERTEX
  5
B3
  8
LEFTRIGHT_BR
 10
232.0812969011123
 20
532.3148341519784
 30
0.0
  0
VERTEX
  5
B4
  8
LEFTRIGHT_BR
 10
232.0812969011123
 20
522.3148341519783
 30
0.0
  0
VERTEX
  5
B5
  8
LEFTRIGHT_BR
 10
232.0812969011124
 20
512.3148341519782
 30
0.0
  0
VERTEX
  5
B6
  8
LEFTRIGHT_BR
 10
182.081296901109
 20
512.3148341519819
 30
0.0
  0
VERTEX
  5
B7
  8
LEFTRIGHT_BR
 10
170.1637609751454
 20
522.3148341519819
 30
0.0
  0
VERTEX
  5
B8
  8
LEFTRIGHT_BR
 10
132.0810000000012
 20
522.3148341519819
 30
0.0
  0
SEQEND
  5
106
  8
LEFTRIGHT_BR
  0
POLYLINE
  5
78
  8
LEFTRIHT_SLOTR
 66
     1
 10
0.0
 20
0.0
 30
0.0
  0
VERTEX
  5
B9
  8
LEFTRIHT_SLOTR
 10
132.0810000000011
 20
542.1148341519819
 30
0.0
  0
VERTEX
  5
BA
  8
LEFTRIHT_SLOTR
 10
197.0812969011025
 20
542.1148341519819
 30
0.0
  0
VERTEX
  5
BB
  8
LEFTRIHT_SLOTR
 10
197.0812969011025
 20
532.3148341519819
 30
0.0
  0
VERTEX
  5
BC
  8
LEFTRIHT_SLOTR
 10
132.0810000000009
 20
532.3148341519819
 30
0.0
  0
SEQEND
  5
107
  8
LEFTRIHT_SLOTR
  0
POLYLINE
  5
7A
  8
LEFTRIGHT_SLOTL
 66
     1
 10
0.0
 20
0.0
 30
0.0
  0
VERTEX
  5
BD
  8
LEFTRIGHT_SLOTL
 10
132.0809999999999
 20
532.3148341519818
 30
0.0
  0
VERTEX
  5
BE
  8
LEFTRIGHT_SLOTL
 10
67.08129690110133
 20
532.3148341519818
 30
0.0
  0
VERTEX
  5
BF
  8
LEFTRIGHT_SLOTL
 10
67.08129690110133
 20
542.1148341519819
 30
0.0
  0
VERTEX
  5
C0
  8
LEFTRIGHT_SLOTL
 10
132.081
 20
542.1148341519819
 30
0.0
  0
SEQEND
  5
108
  8
LEFTRIGHT_SLOTL
  0
POLYLINE
  5
7C
  8
FRONTBACK_BL
 66
     1
 10
0.0
 20
0.0
 30
0.0
  0
VERTEX
  5
C1
  8
FRONTBACK_BL
 10
398.5412507281472
 20
838.6374931876309
 30
0.0
  0
VERTEX
  5
C2
  8
FRONTBACK_BL
 10
398.5412507281472
 20
823.6378725456135
 30
0.0
  0
VERTEX
  5
C3
  8
FRONTBACK_BL
 10
407.9412507281472
 20
823.6378725456135
 30
0.0
  0
VERTEX
  5
C4
  8
FRONTBACK_BL
 10
407.9415007281473
 20
783.3374395329117
 30
0.0
  0
VERTEX
  5
C5
  8
FRONTBACK_BL
 10
407.9432507281476
 20
783.3378725456137
 30
0.0
  0
VERTEX
  5
C6
  8
FRONTBACK_BL
 10
448.543250728147
 20
783.3378725456137
 30
0.0
  0
VERTEX
  5
C7
  8
FRONTBACK_BL
 10
460.4607866540888
 20
793.3378725456135
 30
0.0
  0
VERTEX
  5
C8
  8
FRONTBACK_BL
 10
484.2019538270361
 20
793.3378725456133
 30
0.0
  0
SEQEND
  5
109
  8
FRONTBACK_BL
  0
POLYLINE
  5
7E
  8
FRONTBACK_TL
 66
     1
 10
0.0
 20
0.0
 30
0.0
  0
VERTEX
  5
C9
  8
FRONTBACK_TL
 10
398.5412507281472
 20
838.6374931876784
 30
0.0
  0
VERTEX
  5
CA
  8
FRONTBACK_TL
 10
398.5412507281472
 20
853.6374931876784
 30
0.0
  0
VERTEX
  5
CB
  8
FRONTBACK_TL
 10
407.9412507281472
 20
853.6374931876784
 30
0.0
  0
VERTEX
  5
CC
  8
FRONTBACK_TL
 10
407.941823949672
 20
893.9379877972299
 30
0.0
  0
VERTEX
  5
CD
  8
FRONTBACK_TL
 10
407.9432507281476
 20
893.9374931876786
 30
0.0
  0
VERTEX
  5
CE
  8
FRONTBACK_TL
 10
448.5432507281441
 20
893.9374931876779
 30
0.0
  0
VERTEX
  5
CF
  8
FRONTBACK_TL
 10
460.4607866540884
 20
903.9374931876779
 30
0.0
  0
VERTEX
  5
D0
  8
FRONTBACK_TL
 10
484.2020186911196
 20
903.9374931876773
 30
0.0
  0
SEQEND
  5
10A
  8
FRONTBACK_TL
  0
POLYLINE
  5
80
  8
FRONTBACK_TR
 66
     1
 10
0.0
 20
0.0
 30
0.0
  0
VERTEX
  5
D1
  8
FRONTBACK_TR
 10
569.8607866541126
 20
838.6374931876784
 30
0.0
  0
VERTEX
  5
D2
  8
FRONTBACK_TR
 10
569.8607866541129
 20
853.6374931876783
 30
0.0
  0
VERTEX
  5
D3
  8
FRONTBACK_TR
 10
560.4607866541128
 20
853.6374931876783
 30
0.0
  0
VERTEX
  5
D4
  8
FRONTBACK_TR
 10
560.4607866541128
 20
893.9374931876782
 30
0.0
  0
VERTEX
  5
D5
  8
FRONTBACK_TR
 10
519.8607866541272
 20
893.9374931876741
 30
0.0
  0
VERTEX
  5
D6
  8
FRONTBACK_TR
 10
507.9432507281738
 20
903.9374931876741
 30
0.0
  0
VERTEX
  5
D7
  8
FRONTBACK_TR
 10
484.2020186911425
 20
903.9374931876748
 30
0.0
  0
SEQEND
  5
10B
  8
FRONTBACK_TR
  0
POLYLINE
  5
82
  8
FRONTBACK_BR
 66
     1
 10
0.0
 20
0.0
 30
0.0
  0
VERTEX
  5
D8
  8
FRONTBACK_BR
 10
569.8607866541126
 20
838.6378725456133
 30
0.0
  0
VERTEX
  5
D9
  8
FRONTBACK_BR
 10
569.8607866541126
 20
823.6378725456134
 30
0.0
  0
VERTEX
  5
DA
  8
FRONTBACK_BR
 10
560.4607866541128
 20
823.6378725456134
 30
0.0
  0
VERTEX
  5
DB
  8
FRONTBACK_BR
 10
560.4607866541128
 20
783.3378725456139
 30
0.0
  0
VERTEX
  5
DC
  8
FRONTBACK_BR
 10
519.8607866541113
 20
783.3378725456146
 30
0.0
  0
VERTEX
  5
DD
  8
FRONTBACK_BR
 10
507.943250728171
 20
793.3378725456126
 30
0.0
  0
VERTEX
  5
DE
  8
FRONTBACK_BR
 10
484.2019538270592
 20
793.3378725456128
 30
0.0
  0
SEQEND
  5
10C
  8
FRONTBACK_BR
  0
POLYLINE
  5
84
  8
FRONTBACK_SLOTL
 66
     1
 10
0.0
 20
0.0
 30
0.0
  0
VERTEX
  5
DF
  8
FRONTBACK_SLOTL
 10
484.2020186911184
 20
803.3378725456131
 30
0.0
  0
VERTEX
  5
E0
  8
FRONTBACK_SLOTL
 10
429.2020186911184
 20
803.3378725456131
 30
0.0
  0
VERTEX
  5
E1
  8
FRONTBACK_SLOTL
 10
429.2020186911184
 20
813.137872545613
 30
0.0
  0
VERTEX
  5
E2
  8
FRONTBACK_SLOTL
 10
484.2020186911184
 20
813.137872545613
 30
0.0
  0
SEQEND
  5
10D
  8
FRONTBACK_SLOTL
  0
POLYLINE
  5
86
  8
FRONTBACK_SLOTR
 66
     1
 10
0.0
 20
0.0
 30
0.0
  0
VERTEX
  5
E3
  8
FRONTBACK_SLOTR
 10
484.2020186911415
 20
803.3378725456131
 30
0.0
  0
VERTEX
  5
E4
  8
FRONTBACK_SLOTR
 10
539.2020186911416
 20
803.3378725456131
 30
0.0
  0
VERTEX
  5
E5
  8
FRONTBACK_SLOTR
 10
539.2020186911416
 20
813.137872545613
 30
0.0
  0
VERTEX
  5
E6
  8
FRONTBACK_SLOTR
 10
484.2020186911415
 20
813.137872545613
 30
0.0
  0
SEQEND
  5
10E
  8
FRONTBACK_SLOTR
  0
POLYLINE
  5
88
  8
BOTTOM_BR
 66
     1
 10
0.0
 20
0.0
 30
0.0
  0
VERTEX
  5
E7
  8
BOTTOM_BR
 10
217.690416142534
 20
1213.972625921737
 30
0.0
  0
VERTEX
  5
E8
  8
BOTTOM_BR
 10
217.690416142534
 20
1160.222625921738
 30
0.0
  0
VERTEX
  5
E9
  8
BOTTOM_BR
 10
212.6904161425409
 20
1160.22262592176
 30
0.0
  0
VERTEX
  5
EA
  8
BOTTOM_BR
 10
212.690416142534
 20
1123.622625921738
 30
0.0
  0
VERTEX
  5
EB
  8
BOTTOM_BR
 10
183.4316661425328
 20
1123.622625921754
 30
0.0
  0
VERTEX
  5
EC
  8
BOTTOM_BR
 10
183.4316661425345
 20
1118.622625921738
 30
0.0
  0
VERTEX
  5
ED
  8
BOTTOM_BR
 10
136.6816661425343
 20
1118.622625921738
 30
0.0
  0
SEQEND
  5
10F
  8
BOTTOM_BR
  0
POLYLINE
  5
8A
  8
BOTTOM_TR
 66
     1
 10
0.0
 20
0.0
 30
0.0
  0
VERTEX
  5
EE
  8
BOTTOM_TR
 10
217.690416142534
 20
1213.972625921737
 30
0.0
  0
VERTEX
  5
EF
  8
BOTTOM_TR
 10
217.690416142534
 20
1267.722625921738
 30
0.0
  0
VERTEX
  5
F0
  8
BOTTOM_TR
 10
212.6904161424827
 20
1267.722625921789
 30
0.0
  0
VERTEX
  5
F1
  8
BOTTOM_TR
 10
212.6904161425341
 20
1304.322625921738
 30
0.0
  0
VERTEX
  5
F2
  8
BOTTOM_TR
 10
183.4316661425037
 20
1304.322625921765
 30
0.0
  0
VERTEX
  5
F3
  8
BOTTOM_TR
 10
183.4316661425345
 20
1309.322625921737
 30
0.0
  0
VERTEX
  5
F4
  8
BOTTOM_TR
 10
136.6820000000007
 20
1309.322625921737
 30
0.0
  0
SEQEND
  5
110
  8
BOTTOM_TR
  0
POLYLINE
  5
8C
  8
BOTTOM_TL
 66
     1
 10
0.0
 20
0.0
 30
0.0
  0
VERTEX
  5
F5
  8
BOTTOM_TL
 10
55.67288021659328
 20
1213.972625921738
 30
0.0
  0
VERTEX
  5
F6
  8
BOTTOM_TL
 10
55.67288021659328
 20
1267.722625921738
 30
0.0
  0
VERTEX
  5
F7
  8
BOTTOM_TL
 10
60.67288021658185
 20
1267.72262592176
 30
0.0
  0
VERTEX
  5
F8
  8
BOTTOM_TL
 10
60.67288021659322
 20
1304.322625921738
 30
0.0
  0
VERTEX
  5
F9
  8
BOTTOM_TL
 10
89.93166614253781
 20
1304.322625921771
 30
0.0
  0
VERTEX
  5
FA
  8
BOTTOM_TL
 10
89.93166614253417
 20
1309.322625921737
 30
0.0
  0
VERTEX
  5
FB
  8
BOTTOM_TL
 10
136.6820000000007
 20
1309.322625921737
 30
0.0
  0
SEQEND
  5
111
  8
BOTTOM_TL
  0
POLYLINE
  5
8E
  8
BOTTOM_BL
 66
     1
 10
0.0
 20
0.0
 30
0.0
  0
VERTEX
  5
FC
  8
BOTTOM_BL
 10
55.67288021659328
 20
1213.972625921738
 30
0.0
  0
VERTEX
  5
FD
  8
BOTTOM_BL
 10
55.67288021659328
 20
1160.222625921738
 30
0.0
  0
VERTEX
  5
FE
  8
BOTTOM_BL
 10
60.6728802165964
 20
1160.222625921746
 30
0.0
  0
VERTEX
  5
FF
  8
BOTTOM_BL
 10
60.67288021659299
 20
1123.622625921738
 30
0.0
  0
VERTEX
  5
100
  8
BOTTOM_BL
 10
89.93166614253292
 20
1123.62262592174
 30
0.0
  0
VERTEX
  5
101
  8
BOTTOM_BL
 10
89.93166614253406
 20
1118.622625921738
 30
0.0
  0
VERTEX
  5
102
  8
BOTTOM_BL
 10
136.6816661425342
 20
1118.622625921738
 30
0.0
  0
SEQEND
  5
112
  8
BOTTOM_BL
  0
ENDSEC
  0
EOF
